name rise42.5664peak47.7979fall81.9185.mot
datacolumns 19
datarows 20
range 2.60999100000000 2.64165900000000
endheader
time	ground_force1_vx	ground_force1_vy	ground_force1_vz	ground_force1_px	ground_force1_py	ground_force1_pz	ground_force2_vx	ground_force2_vy	ground_force2_vz	ground_force2_px	ground_force2_py	ground_force2_pz	ground_torque1_x	ground_torque1_y	ground_torque1_z	ground_torque2_x	ground_torque2_y	ground_torque2_z	
2.60999100000000	-4.86809000000000	41.79794700000000	-11.32760800000000	0.25369800000000	0.00000000000000	0.06719600000000	-60.69901900000000	811.11423200000002	-51.44540100000000	0.05507400000000	0.00000000000000	-0.08835000000000	0.00000000000000	-6.31108700000000	0.00000000000000	0.00000000000000	-14.92720300000000	0.00000000000000	
2.61165900000000	-5.34303200000000	48.81614200000000	-12.72697500000000	0.25719400000000	0.00000000000000	0.06833100000000	-61.26939200000000	808.67031999999995	-50.95933500000000	0.05451400000000	0.00000000000000	-0.08826200000000	0.00000000000000	-7.14132000000000	0.00000000000000	0.00000000000000	-14.92132600000000	0.00000000000000	
2.61332100000000	-5.72449200000000	55.87752500000000	-13.99550100000000	0.26039000000000	0.00000000000000	0.06937700000000	-61.84815100000000	806.05098499999997	-50.44564700000000	0.05395500000000	0.00000000000000	-0.08817200000000	0.00000000000000	-7.90727400000000	0.00000000000000	0.00000000000000	-14.91843900000000	0.00000000000000	
2.61498500000000	-5.99815200000000	62.88779600000000	-15.10358000000000	0.26333700000000	0.00000000000000	0.07034600000000	-62.43446400000000	803.25222900000006	-49.90422100000000	0.05339700000000	0.00000000000000	-0.08807800000000	0.00000000000000	-8.59135700000000	0.00000000000000	0.00000000000000	-14.91846900000000	0.00000000000000	
2.61665400000000	-6.15496900000000	69.77691700000000	-16.03182400000000	0.26607500000000	0.00000000000000	0.07124700000000	-63.02740000000000	800.27013699999998	-49.33498000000000	0.05284000000000	0.00000000000000	-0.08798100000000	0.00000000000000	-9.18166900000000	0.00000000000000	0.00000000000000	-14.92131800000000	0.00000000000000	
2.61832900000000	-6.19112400000000	76.50112300000001	-16.77117000000000	0.26863800000000	0.00000000000000	0.07208900000000	-63.62593400000000	797.10088599999995	-48.73789400000000	0.05228600000000	0.00000000000000	-0.08788100000000	0.00000000000000	-9.67215200000000	0.00000000000000	0.00000000000000	-14.92687000000000	0.00000000000000	
2.61999300000000	-6.10757500000000	83.04245000000000	-17.32212600000000	0.27105000000000	0.00000000000000	0.07287900000000	-64.22894599999999	793.74076400000001	-48.11297700000000	0.05173500000000	0.00000000000000	-0.08777800000000	0.00000000000000	-10.06223400000000	0.00000000000000	0.00000000000000	-14.93498200000000	0.00000000000000	
2.62165400000000	-5.90928600000000	89.40622000000000	-17.69336100000000	0.27333400000000	0.00000000000000	0.07362100000000	-64.83522200000000	790.18618100000003	-47.46029500000000	0.05118800000000	0.00000000000000	-0.08767100000000	0.00000000000000	-10.35608600000000	0.00000000000000	0.00000000000000	-14.94549100000000	0.00000000000000	
2.62332200000000	-5.60427000000000	95.61704100000000	-17.89987000000000	0.27550700000000	0.00000000000000	0.07432200000000	-65.44345700000000	786.43368299999997	-46.77996000000000	0.05064600000000	0.00000000000000	-0.08756100000000	0.00000000000000	-10.56161700000000	0.00000000000000	0.00000000000000	-14.95821100000000	0.00000000000000	
2.62498800000000	-5.20255100000000	101.71392500000000	-17.96093500000000	0.27758200000000	0.00000000000000	0.07498600000000	-66.05225799999999	782.47996799999999	-46.07214100000000	0.05010900000000	0.00000000000000	-0.08744800000000	0.00000000000000	-10.68933300000000	0.00000000000000	0.00000000000000	-14.97293200000000	0.00000000000000	
2.62666000000000	-4.71514900000000	107.74507199999999	-17.89809000000000	0.27957200000000	0.00000000000000	0.07561500000000	-66.66014300000001	778.32190100000003	-45.33705900000000	0.04957800000000	0.00000000000000	-0.08733100000000	0.00000000000000	-10.75118100000000	0.00000000000000	0.00000000000000	-14.98942400000000	0.00000000000000	
2.62832400000000	-4.15315500000000	113.76281100000000	-17.73326100000000	0.28148500000000	0.00000000000000	0.07621300000000	-67.26554800000000	773.95653100000004	-44.57499100000000	0.04905400000000	0.00000000000000	-0.08721000000000	0.00000000000000	-10.75947100000000	0.00000000000000	0.00000000000000	-15.00743400000000	0.00000000000000	
2.62998500000000	-3.52697400000000	119.81905900000000	-17.48718100000000	0.28332900000000	0.00000000000000	0.07678300000000	-67.86682900000000	769.38110500000005	-43.78627400000000	0.04853700000000	0.00000000000000	-0.08708500000000	0.00000000000000	-10.72595100000000	0.00000000000000	0.00000000000000	-15.02669000000000	0.00000000000000	
2.63165200000000	-2.84574700000000	125.96158900000000	-17.17817900000000	0.28510900000000	0.00000000000000	0.07732700000000	-68.46226400000000	764.59309099999996	-42.97130000000000	0.04802800000000	0.00000000000000	-0.08695700000000	0.00000000000000	-10.66108800000000	0.00000000000000	0.00000000000000	-15.04689800000000	0.00000000000000	
2.63332400000000	-2.11698200000000	132.23123400000000	-16.82135700000000	0.28683100000000	0.00000000000000	0.07784700000000	-69.05006100000000	759.59018700000001	-42.13052500000000	0.04752800000000	0.00000000000000	-0.08682500000000	0.00000000000000	-10.57355800000000	0.00000000000000	0.00000000000000	-15.06774600000000	0.00000000000000	
2.63498700000000	-1.34636600000000	138.66007999999999	-16.42815200000000	0.28849900000000	0.00000000000000	0.07834500000000	-69.62836100000000	754.37034600000004	-41.26446500000000	0.04703700000000	0.00000000000000	-0.08668800000000	0.00000000000000	-10.46996800000000	0.00000000000000	0.00000000000000	-15.08890100000000	0.00000000000000	
2.63665900000000	-0.53777000000000	145.27062000000001	-16.00625800000000	0.29011400000000	0.00000000000000	0.07882200000000	-70.19524000000000	748.93178899999998	-40.37369500000000	0.04655500000000	0.00000000000000	-0.08654800000000	0.00000000000000	-10.35477600000000	0.00000000000000	0.00000000000000	-15.11001700000000	0.00000000000000	
2.63832100000000	0.30662800000000	152.07573700000000	-15.55982900000000	0.29167900000000	0.00000000000000	0.07928000000000	-70.74872000000001	743.27302099999997	-39.45885700000000	0.04608400000000	0.00000000000000	-0.08640300000000	0.00000000000000	-10.23039100000000	0.00000000000000	0.00000000000000	-15.13072600000000	0.00000000000000	
2.63999300000000	1.18609000000000	159.07938400000000	-15.08992200000000	0.29319500000000	0.00000000000000	0.07972100000000	-71.28677000000000	737.39284899999996	-38.52065200000000	0.04562400000000	0.00000000000000	-0.08625400000000	0.00000000000000	-10.09740000000000	0.00000000000000	0.00000000000000	-15.15065100000000	0.00000000000000	
2.64165900000000	2.10101500000000	166.27777200000000	-14.59507500000000	0.29466400000000	0.00000000000000	0.08014500000000	-71.80731299999999	731.29039499999999	-37.55984700000000	0.04517500000000	0.00000000000000	-0.08610100000000	0.00000000000000	-9.95489500000000	0.00000000000000	0.00000000000000	-15.16939500000000	0.00000000000000	
